<mxfile host="app.diagrams.net" agent="Mozilla/5.0 (Windows NT 10.0; Win64; x64) AppleWebKit/537.36 (KHTML, like Gecko) Chrome/130.0.0.0 Safari/537.36 Edg/130.0.0.0" version="24.8.4">
  <diagram id="C5RBs43oDa-KdzZeNtuy" name="Page-1">
    <mxGraphModel dx="3781" dy="2609" grid="1" gridSize="10" guides="1" tooltips="1" connect="1" arrows="1" fold="1" page="1" pageScale="1" pageWidth="827" pageHeight="1169" math="0" shadow="0">
      <root>
        <mxCell id="WIyWlLk6GJQsqaUBKTNV-0" />
        <mxCell id="WIyWlLk6GJQsqaUBKTNV-1" parent="WIyWlLk6GJQsqaUBKTNV-0" />
        <mxCell id="CUpw3J1HmuMPRphV8fkl-1" value="" style="edgeStyle=orthogonalEdgeStyle;rounded=0;orthogonalLoop=1;jettySize=auto;html=1;" edge="1" parent="WIyWlLk6GJQsqaUBKTNV-1" source="CUpw3J1HmuMPRphV8fkl-0">
          <mxGeometry relative="1" as="geometry">
            <mxPoint x="220" y="60" as="targetPoint" />
          </mxGeometry>
        </mxCell>
        <mxCell id="CUpw3J1HmuMPRphV8fkl-0" value="Mulai" style="ellipse;whiteSpace=wrap;html=1;" vertex="1" parent="WIyWlLk6GJQsqaUBKTNV-1">
          <mxGeometry x="170" y="-60" width="100" height="60" as="geometry" />
        </mxCell>
        <mxCell id="CUpw3J1HmuMPRphV8fkl-4" value="" style="edgeStyle=orthogonalEdgeStyle;rounded=0;orthogonalLoop=1;jettySize=auto;html=1;" edge="1" parent="WIyWlLk6GJQsqaUBKTNV-1" source="CUpw3J1HmuMPRphV8fkl-2" target="CUpw3J1HmuMPRphV8fkl-3">
          <mxGeometry relative="1" as="geometry" />
        </mxCell>
        <mxCell id="CUpw3J1HmuMPRphV8fkl-2" value="Ambil foto makanan/&lt;div&gt;minuman&lt;/div&gt;" style="shape=parallelogram;perimeter=parallelogramPerimeter;whiteSpace=wrap;html=1;fixedSize=1;" vertex="1" parent="WIyWlLk6GJQsqaUBKTNV-1">
          <mxGeometry x="135" y="60" width="170" height="60" as="geometry" />
        </mxCell>
        <mxCell id="CUpw3J1HmuMPRphV8fkl-6" value="" style="edgeStyle=orthogonalEdgeStyle;rounded=0;orthogonalLoop=1;jettySize=auto;html=1;" edge="1" parent="WIyWlLk6GJQsqaUBKTNV-1" source="CUpw3J1HmuMPRphV8fkl-3" target="CUpw3J1HmuMPRphV8fkl-5">
          <mxGeometry relative="1" as="geometry" />
        </mxCell>
        <mxCell id="CUpw3J1HmuMPRphV8fkl-39" style="edgeStyle=orthogonalEdgeStyle;rounded=0;orthogonalLoop=1;jettySize=auto;html=1;exitX=1;exitY=0.5;exitDx=0;exitDy=0;fontFamily=Helvetica;fontSize=12;fontColor=default;autosize=1;resizable=0;entryX=0.5;entryY=0;entryDx=0;entryDy=0;" edge="1" parent="WIyWlLk6GJQsqaUBKTNV-1" source="CUpw3J1HmuMPRphV8fkl-3" target="CUpw3J1HmuMPRphV8fkl-37">
          <mxGeometry relative="1" as="geometry">
            <mxPoint x="710" y="235.69230769230762" as="targetPoint" />
          </mxGeometry>
        </mxCell>
        <mxCell id="CUpw3J1HmuMPRphV8fkl-3" value="Apakah merupakan gambar kosong ?" style="rhombus;whiteSpace=wrap;html=1;" vertex="1" parent="WIyWlLk6GJQsqaUBKTNV-1">
          <mxGeometry x="125" y="180" width="190" height="110" as="geometry" />
        </mxCell>
        <mxCell id="CUpw3J1HmuMPRphV8fkl-14" value="" style="edgeStyle=orthogonalEdgeStyle;rounded=0;orthogonalLoop=1;jettySize=auto;html=1;" edge="1" parent="WIyWlLk6GJQsqaUBKTNV-1" source="CUpw3J1HmuMPRphV8fkl-5" target="CUpw3J1HmuMPRphV8fkl-13">
          <mxGeometry relative="1" as="geometry" />
        </mxCell>
        <mxCell id="CUpw3J1HmuMPRphV8fkl-16" value="" style="edgeStyle=orthogonalEdgeStyle;rounded=0;orthogonalLoop=1;jettySize=auto;html=1;" edge="1" parent="WIyWlLk6GJQsqaUBKTNV-1" source="CUpw3J1HmuMPRphV8fkl-5" target="CUpw3J1HmuMPRphV8fkl-15">
          <mxGeometry relative="1" as="geometry" />
        </mxCell>
        <mxCell id="CUpw3J1HmuMPRphV8fkl-5" value="Apakah yang dimasukkan&amp;nbsp;&lt;div&gt;padat ?&lt;/div&gt;" style="rhombus;whiteSpace=wrap;html=1;" vertex="1" parent="WIyWlLk6GJQsqaUBKTNV-1">
          <mxGeometry x="125" y="350" width="190" height="110" as="geometry" />
        </mxCell>
        <mxCell id="CUpw3J1HmuMPRphV8fkl-22" value="" style="edgeStyle=orthogonalEdgeStyle;rounded=0;orthogonalLoop=1;jettySize=auto;html=1;entryX=1;entryY=0.5;entryDx=0;entryDy=0;" edge="1" parent="WIyWlLk6GJQsqaUBKTNV-1" source="CUpw3J1HmuMPRphV8fkl-13" target="CUpw3J1HmuMPRphV8fkl-19">
          <mxGeometry relative="1" as="geometry">
            <mxPoint x="440" y="660" as="targetPoint" />
            <Array as="points">
              <mxPoint x="440" y="690" />
            </Array>
          </mxGeometry>
        </mxCell>
        <mxCell id="CUpw3J1HmuMPRphV8fkl-13" value="Hapus latar belakang cairan" style="whiteSpace=wrap;html=1;" vertex="1" parent="WIyWlLk6GJQsqaUBKTNV-1">
          <mxGeometry x="380" y="520" width="120" height="60" as="geometry" />
        </mxCell>
        <mxCell id="CUpw3J1HmuMPRphV8fkl-20" value="" style="edgeStyle=orthogonalEdgeStyle;rounded=0;orthogonalLoop=1;jettySize=auto;html=1;" edge="1" parent="WIyWlLk6GJQsqaUBKTNV-1" source="CUpw3J1HmuMPRphV8fkl-15" target="CUpw3J1HmuMPRphV8fkl-19">
          <mxGeometry relative="1" as="geometry">
            <Array as="points">
              <mxPoint y="690" />
            </Array>
          </mxGeometry>
        </mxCell>
        <mxCell id="CUpw3J1HmuMPRphV8fkl-15" value="Hapus latar belakang padatan" style="whiteSpace=wrap;html=1;" vertex="1" parent="WIyWlLk6GJQsqaUBKTNV-1">
          <mxGeometry x="-60" y="520" width="120" height="60" as="geometry" />
        </mxCell>
        <mxCell id="CUpw3J1HmuMPRphV8fkl-25" value="" style="edgeStyle=orthogonalEdgeStyle;rounded=0;orthogonalLoop=1;jettySize=auto;html=1;" edge="1" parent="WIyWlLk6GJQsqaUBKTNV-1" source="CUpw3J1HmuMPRphV8fkl-19" target="CUpw3J1HmuMPRphV8fkl-23">
          <mxGeometry relative="1" as="geometry" />
        </mxCell>
        <mxCell id="CUpw3J1HmuMPRphV8fkl-19" value="Hasilkan Histogram" style="whiteSpace=wrap;html=1;" vertex="1" parent="WIyWlLk6GJQsqaUBKTNV-1">
          <mxGeometry x="160" y="660" width="120" height="60" as="geometry" />
        </mxCell>
        <mxCell id="CUpw3J1HmuMPRphV8fkl-26" value="" style="edgeStyle=orthogonalEdgeStyle;rounded=0;orthogonalLoop=1;jettySize=auto;html=1;" edge="1" parent="WIyWlLk6GJQsqaUBKTNV-1" source="CUpw3J1HmuMPRphV8fkl-23" target="CUpw3J1HmuMPRphV8fkl-24">
          <mxGeometry relative="1" as="geometry" />
        </mxCell>
        <mxCell id="CUpw3J1HmuMPRphV8fkl-23" value="Klasifikasi Makanan berdasarkan kode yang telah dibuat" style="rounded=0;whiteSpace=wrap;html=1;" vertex="1" parent="WIyWlLk6GJQsqaUBKTNV-1">
          <mxGeometry x="-70" y="770" width="120" height="60" as="geometry" />
        </mxCell>
        <mxCell id="CUpw3J1HmuMPRphV8fkl-28" value="" style="edgeStyle=orthogonalEdgeStyle;rounded=0;orthogonalLoop=1;jettySize=auto;html=1;" edge="1" parent="WIyWlLk6GJQsqaUBKTNV-1" source="CUpw3J1HmuMPRphV8fkl-24" target="CUpw3J1HmuMPRphV8fkl-27">
          <mxGeometry relative="1" as="geometry" />
        </mxCell>
        <mxCell id="CUpw3J1HmuMPRphV8fkl-30" value="" style="edgeStyle=orthogonalEdgeStyle;rounded=0;orthogonalLoop=1;jettySize=auto;html=1;" edge="1" parent="WIyWlLk6GJQsqaUBKTNV-1" source="CUpw3J1HmuMPRphV8fkl-24" target="CUpw3J1HmuMPRphV8fkl-29">
          <mxGeometry relative="1" as="geometry" />
        </mxCell>
        <mxCell id="CUpw3J1HmuMPRphV8fkl-24" value="Apakah bisa diklasifikasikan ?" style="rhombus;whiteSpace=wrap;html=1;" vertex="1" parent="WIyWlLk6GJQsqaUBKTNV-1">
          <mxGeometry x="105" y="870" width="230" height="80" as="geometry" />
        </mxCell>
        <mxCell id="CUpw3J1HmuMPRphV8fkl-41" value="" style="edgeStyle=orthogonalEdgeStyle;rounded=0;orthogonalLoop=1;jettySize=auto;html=1;fontFamily=Helvetica;fontSize=12;fontColor=default;autosize=1;resizable=0;entryX=0;entryY=0.5;entryDx=0;entryDy=0;" edge="1" parent="WIyWlLk6GJQsqaUBKTNV-1" source="CUpw3J1HmuMPRphV8fkl-27" target="CUpw3J1HmuMPRphV8fkl-37">
          <mxGeometry relative="1" as="geometry">
            <mxPoint y="1130" as="targetPoint" />
            <Array as="points">
              <mxPoint y="1080" />
              <mxPoint x="590" y="1080" />
            </Array>
          </mxGeometry>
        </mxCell>
        <mxCell id="CUpw3J1HmuMPRphV8fkl-27" value="Rekomendasi temperatur" style="whiteSpace=wrap;html=1;" vertex="1" parent="WIyWlLk6GJQsqaUBKTNV-1">
          <mxGeometry x="-60" y="990" width="120" height="60" as="geometry" />
        </mxCell>
        <mxCell id="CUpw3J1HmuMPRphV8fkl-36" value="" style="edgeStyle=orthogonalEdgeStyle;rounded=0;orthogonalLoop=1;jettySize=auto;html=1;fontFamily=Helvetica;fontSize=12;fontColor=default;autosize=1;resizable=0;entryX=1;entryY=0.5;entryDx=0;entryDy=0;" edge="1" parent="WIyWlLk6GJQsqaUBKTNV-1" source="CUpw3J1HmuMPRphV8fkl-29" target="CUpw3J1HmuMPRphV8fkl-27">
          <mxGeometry relative="1" as="geometry">
            <mxPoint x="300" y="1020" as="targetPoint" />
          </mxGeometry>
        </mxCell>
        <mxCell id="CUpw3J1HmuMPRphV8fkl-29" value="Tambahkan di dalam kode" style="whiteSpace=wrap;html=1;" vertex="1" parent="WIyWlLk6GJQsqaUBKTNV-1">
          <mxGeometry x="380" y="990" width="120" height="60" as="geometry" />
        </mxCell>
        <mxCell id="CUpw3J1HmuMPRphV8fkl-31" value="No" style="text;html=1;align=center;verticalAlign=middle;resizable=0;points=[];autosize=1;strokeColor=none;fillColor=none;" vertex="1" parent="WIyWlLk6GJQsqaUBKTNV-1">
          <mxGeometry x="360" y="880" width="40" height="30" as="geometry" />
        </mxCell>
        <mxCell id="CUpw3J1HmuMPRphV8fkl-33" value="Yes" style="text;html=1;align=center;verticalAlign=middle;resizable=0;points=[];autosize=1;strokeColor=none;fillColor=none;fontFamily=Helvetica;fontSize=12;fontColor=default;" vertex="1" parent="WIyWlLk6GJQsqaUBKTNV-1">
          <mxGeometry x="30" y="880" width="40" height="30" as="geometry" />
        </mxCell>
        <mxCell id="CUpw3J1HmuMPRphV8fkl-37" value="Selesai" style="ellipse;whiteSpace=wrap;html=1;align=center;verticalAlign=middle;fontFamily=Helvetica;fontSize=12;fontColor=default;autosize=1;resizable=0;fillColor=none;gradientColor=none;" vertex="1" parent="WIyWlLk6GJQsqaUBKTNV-1">
          <mxGeometry x="590" y="1070" width="60" height="30" as="geometry" />
        </mxCell>
        <mxCell id="CUpw3J1HmuMPRphV8fkl-38" value="No" style="text;html=1;align=center;verticalAlign=middle;resizable=0;points=[];autosize=1;strokeColor=none;fillColor=none;fontFamily=Helvetica;fontSize=12;fontColor=default;" vertex="1" parent="WIyWlLk6GJQsqaUBKTNV-1">
          <mxGeometry x="220" y="300" width="40" height="30" as="geometry" />
        </mxCell>
      </root>
    </mxGraphModel>
  </diagram>
</mxfile>
